<svg width="200" height="200" viewBox="0 0 200 200" fill="none" xmlns="http://www.w3.org/2000/svg">
  <!-- QR Code Background -->
  <rect width="200" height="200" fill="white" stroke="#e9ecef" stroke-width="2" rx="10"/>
  
  <!-- QR Code Pattern (Simplified representation) -->
  <!-- Corner squares -->
  <rect x="10" y="10" width="30" height="30" fill="black"/>
  <rect x="160" y="10" width="30" height="30" fill="black"/>
  <rect x="10" y="160" width="30" height="30" fill="black"/>
  
  <!-- Inner corner squares -->
  <rect x="15" y="15" width="20" height="20" fill="white"/>
  <rect x="165" y="15" width="20" height="20" fill="white"/>
  <rect x="15" y="165" width="20" height="20" fill="white"/>
  
  <!-- Center squares -->
  <rect x="20" y="20" width="10" height="10" fill="black"/>
  <rect x="170" y="20" width="10" height="10" fill="black"/>
  <rect x="20" y="170" width="10" height="10" fill="black"/>
  
  <!-- Data pattern (simplified) -->
  <rect x="50" y="20" width="5" height="5" fill="black"/>
  <rect x="60" y="20" width="5" height="5" fill="black"/>
  <rect x="80" y="20" width="5" height="5" fill="black"/>
  <rect x="90" y="20" width="5" height="5" fill="black"/>
  <rect x="110" y="20" width="5" height="5" fill="black"/>
  <rect x="130" y="20" width="5" height="5" fill="black"/>
  
  <rect x="20" y="50" width="5" height="5" fill="black"/>
  <rect x="30" y="50" width="5" height="5" fill="black"/>
  <rect x="50" y="50" width="5" height="5" fill="black"/>
  <rect x="70" y="50" width="5" height="5" fill="black"/>
  <rect x="90" y="50" width="5" height="5" fill="black"/>
  <rect x="110" y="50" width="5" height="5" fill="black"/>
  <rect x="130" y="50" width="5" height="5" fill="black"/>
  <rect x="150" y="50" width="5" height="5" fill="black"/>
  <rect x="170" y="50" width="5" height="5" fill="black"/>
  
  <!-- More data patterns -->
  <rect x="50" y="70" width="5" height="5" fill="black"/>
  <rect x="70" y="70" width="5" height="5" fill="black"/>
  <rect x="90" y="70" width="5" height="5" fill="black"/>
  <rect x="130" y="70" width="5" height="5" fill="black"/>
  <rect x="150" y="70" width="5" height="5" fill="black"/>
  
  <rect x="30" y="90" width="5" height="5" fill="black"/>
  <rect x="50" y="90" width="5" height="5" fill="black"/>
  <rect x="90" y="90" width="5" height="5" fill="black"/>
  <rect x="110" y="90" width="5" height="5" fill="black"/>
  <rect x="150" y="90" width="5" height="5" fill="black"/>
  <rect x="170" y="90" width="5" height="5" fill="black"/>
  
  <!-- Center alignment pattern -->
  <rect x="90" y="90" width="20" height="20" fill="black"/>
  <rect x="95" y="95" width="10" height="10" fill="white"/>
  <rect x="97" y="97" width="6" height="6" fill="black"/>
  
  <!-- More data patterns -->
  <rect x="20" y="110" width="5" height="5" fill="black"/>
  <rect x="40" y="110" width="5" height="5" fill="black"/>
  <rect x="60" y="110" width="5" height="5" fill="black"/>
  <rect x="130" y="110" width="5" height="5" fill="black"/>
  <rect x="150" y="110" width="5" height="5" fill="black"/>
  <rect x="170" y="110" width="5" height="5" fill="black"/>
  
  <rect x="50" y="130" width="5" height="5" fill="black"/>
  <rect x="70" y="130" width="5" height="5" fill="black"/>
  <rect x="130" y="130" width="5" height="5" fill="black"/>
  <rect x="170" y="130" width="5" height="5" fill="black"/>
  
  <rect x="30" y="150" width="5" height="5" fill="black"/>
  <rect x="50" y="150" width="5" height="5" fill="black"/>
  <rect x="70" y="150" width="5" height="5" fill="black"/>
  <rect x="90" y="150" width="5" height="5" fill="black"/>
  <rect x="110" y="150" width="5" height="5" fill="black"/>
  <rect x="130" y="150" width="5" height="5" fill="black"/>
  <rect x="150" y="150" width="5" height="5" fill="black"/>
  
  <rect x="50" y="170" width="5" height="5" fill="black"/>
  <rect x="70" y="170" width="5" height="5" fill="black"/>
  <rect x="90" y="170" width="5" height="5" fill="black"/>
  <rect x="110" y="170" width="5" height="5" fill="black"/>
  <rect x="130" y="170" width="5" height="5" fill="black"/>
  <rect x="150" y="170" width="5" height="5" fill="black"/>
  <rect x="170" y="170" width="5" height="5" fill="black"/>
  
  <!-- UPI Text -->
  <text x="100" y="195" text-anchor="middle" font-family="Arial, sans-serif" font-size="8" fill="#666">UPI Payment QR</text>
</svg>
